<svg width="120" height="120" viewBox="0 0 120 120" fill="none" xmlns="http://www.w3.org/2000/svg">
<path d="M91.3125 12C89.2655 12 87.2183 12.7817 85.6562 14.3438L76 24L96 44L105.656 34.3438C108.78 31.2197 108.78 26.1553 105.656 23.0312L96.9688 14.3438C95.4067 12.7817 93.3595 12 91.3125 12ZM68 32L21.0391 78.9609C21.0391 78.9609 24.7101 78.632 26.0781 80C27.4461 81.368 26.32 90.32 28 92C29.68 93.68 38.5756 92.4974 39.8516 93.7734C41.1276 95.0494 41.0391 98.9609 41.0391 98.9609L88 52L68 32ZM16 92L12.2266 102.688C12.0782 103.109 12.0016 103.553 12 104C12 105.061 12.4214 106.078 13.1716 106.828C13.9217 107.579 14.9391 108 16 108C16.4471 107.998 16.8907 107.922 17.3125 107.773C17.3255 107.768 17.3386 107.763 17.3516 107.758L17.4531 107.727C17.461 107.721 17.4688 107.716 17.4766 107.711L28 104L22 98L16 92Z" fill="#022026"/>
</svg>
