<svg width="72" height="71" viewBox="0 0 72 71" fill="none" xmlns="http://www.w3.org/2000/svg">
<g clip-path="url(#clip0_111_25)">
<path fill-rule="evenodd" clip-rule="evenodd" d="M62.8255 0.823975C67.6132 0.823975 71.5 4.6562 71.5 9.37628V62.2717C71.5 66.9918 67.613 70.824 62.8255 70.824H9.17448C4.38697 70.824 0.5 66.9918 0.5 62.2717V9.37628C0.5 4.6562 4.38683 0.823975 9.17448 0.823975H62.8255V0.823975ZM36 11.8982C29.4093 11.8982 28.5829 11.9257 25.9945 12.0422C23.4115 12.1584 21.6475 12.5628 20.1038 13.1544C18.5079 13.7658 17.1546 14.5839 15.8055 15.9139C14.4564 17.244 13.6265 18.5784 13.0064 20.1516C12.4065 21.6736 11.9963 23.4128 11.8783 25.9594C11.7603 28.5113 11.7324 29.3261 11.7324 35.824C11.7324 42.3218 11.7603 43.1367 11.8783 45.6885C11.9963 48.2352 12.4065 49.9744 13.0064 51.4963C13.6265 53.0695 14.4564 54.4039 15.8055 55.7341C17.1546 57.0642 18.5079 57.8823 20.1038 58.4937C21.6475 59.0852 23.4115 59.4896 25.9945 59.6058C28.5829 59.7223 29.4093 59.7498 36 59.7498C42.5907 59.7498 43.4171 59.7223 46.0055 59.6058C48.5885 59.4896 50.3525 59.0852 51.8962 58.4937C53.4919 57.8823 54.8454 57.0642 56.1945 55.7341C57.5436 54.4039 58.3735 53.0695 58.9936 51.4963C59.5935 49.9744 60.0037 48.2352 60.1216 45.6885C60.2397 43.1367 60.2676 42.3218 60.2676 35.824C60.2676 29.3261 60.2397 28.5113 60.1216 25.9594C60.0037 23.4128 59.5935 21.6736 58.9936 20.1516C58.3735 18.5784 57.5436 17.244 56.1945 15.9139C54.8454 14.5839 53.4919 13.7658 51.8962 13.1544C50.3525 12.5628 48.5885 12.1584 46.0055 12.0422C43.4171 11.9257 42.5907 11.8982 36 11.8982ZM36 16.2092C42.4797 16.2092 43.2473 16.2335 45.8062 16.3487C48.1722 16.4552 49.4571 16.845 50.3123 17.1724C51.4451 17.6065 52.2535 18.125 53.1027 18.9622C53.9519 19.7994 54.4777 20.5965 54.918 21.7132C55.2503 22.5564 55.6456 23.8232 55.7535 26.1559C55.8703 28.6788 55.8951 29.4355 55.8951 35.824C55.8951 42.2124 55.8703 42.9692 55.7535 45.492C55.6456 47.8247 55.2503 49.0916 54.918 49.9347C54.4777 51.0516 53.9519 51.8485 53.1027 52.6858C52.2535 53.523 51.4451 54.0415 50.3123 54.4756C49.4571 54.8031 48.1722 55.1929 45.8062 55.2993C43.2477 55.4144 42.4801 55.4389 36 55.4389C29.5199 55.4389 28.7525 55.4144 26.1938 55.2993C23.8278 55.1929 22.5429 54.8031 21.6877 54.4756C20.5549 54.0415 19.7465 53.523 18.8973 52.6858C18.0481 51.8485 17.5221 51.0516 17.082 49.9347C16.7497 49.0916 16.3544 47.8247 16.2463 45.492C16.1296 42.9692 16.1049 42.2124 16.1049 35.824C16.1049 29.4355 16.1296 28.6788 16.2463 26.1559C16.3544 23.8232 16.7497 22.5564 17.082 21.7132C17.5221 20.5965 18.0481 19.7994 18.8973 18.9622C19.7465 18.125 20.5549 17.6065 21.6877 17.1724C22.5429 16.845 23.8278 16.4552 26.1938 16.3487C28.7527 16.2335 29.5203 16.2092 36 16.2092ZM36 23.5377C29.1176 23.5377 23.5383 29.0385 23.5383 35.824C23.5383 42.6095 29.1176 48.1102 36 48.1102C42.8824 48.1102 48.4617 42.6095 48.4617 35.824C48.4617 29.0385 42.8824 23.5377 36 23.5377ZM36 43.7992C31.5324 43.7992 27.9109 40.2286 27.9109 35.824C27.9109 31.4193 31.5324 27.8488 36 27.8488C40.4676 27.8488 44.0891 31.4193 44.0891 35.824C44.0891 40.2286 40.4676 43.7992 36 43.7992ZM51.8663 23.0524C51.8663 24.6381 50.5624 25.9233 48.954 25.9233C47.3459 25.9233 46.0421 24.6381 46.0421 23.0524C46.0421 21.4667 47.3459 20.1813 48.954 20.1813C50.5624 20.1813 51.8663 21.4667 51.8663 23.0524Z" fill="black"/>
</g>
<defs>
<clipPath id="clip0_111_25">
<rect width="71" height="70" fill="white" transform="translate(0.5 0.823975)"/>
</clipPath>
</defs>
</svg>
