<svg width="45" height="43" viewBox="0 0 45 43" fill="none" xmlns="http://www.w3.org/2000/svg">
<circle cx="21.0075" cy="21.5001" r="15.7574" fill="#022026"/>
<path d="M15.4223 14.0976L15.4219 14.0978C14.9429 14.2782 14.5571 14.5084 14.1596 14.8942L14.1593 14.8946C13.762 15.2799 13.5281 15.6509 13.3445 16.1081C13.1665 16.5515 13.0332 17.0791 12.9943 17.9176C12.9521 18.8336 12.9408 19.1162 12.9408 21.5001C12.9408 23.8843 12.9517 24.1655 12.9944 25.081L15.4223 14.0976ZM15.4223 14.0976C15.8874 13.922 16.4402 13.791 17.3139 13.7522L15.4223 14.0976ZM14.1588 28.1048L14.1594 28.1053C14.5569 28.4916 14.9429 28.7222 15.421 28.9026C15.8866 29.0782 16.4397 29.2091 17.3134 29.248C18.2584 29.2898 18.5502 29.3002 21.0072 29.3002C23.4645 29.3002 23.7556 29.2898 24.7006 29.248C25.5745 29.2091 26.1282 29.0781 26.5938 28.9025L26.5938 28.9025C27.0716 28.7223 27.4569 28.4919 27.8547 28.1053L27.8554 28.1047C28.2523 27.7198 28.486 27.3492 28.6695 26.8928C28.8466 26.4477 28.9798 25.9188 29.0205 25.0804C29.0628 24.1654 29.0741 23.883 29.0741 21.5001C29.0741 19.1168 29.0628 18.834 29.0205 17.9186C28.9798 17.0804 28.8466 16.5518 28.6697 16.1073C28.4862 15.6504 28.2524 15.2797 27.8554 14.8946L27.8551 14.8943C27.4568 14.5077 27.0722 14.2779 26.5939 14.0979L26.5938 14.0979C26.1266 13.922 25.573 13.791 24.6995 13.7522L14.1588 28.1048ZM14.1588 28.1048C13.7616 27.7194 13.528 27.3486 13.3451 26.8919L14.1588 28.1048ZM17.3142 13.7522C18.2587 13.7105 18.551 13.7 21.0055 13.7L17.3142 13.7522ZM21.0083 13.7C23.4635 13.7 23.7546 13.7105 24.6992 13.7522L21.0083 13.7ZM21.0074 4C11.0947 4 3.00745 11.8071 3.00745 21.5C3.00745 31.1929 11.0947 39 21.0074 39C30.9202 39 39.0074 31.1929 39.0074 21.5C39.0074 11.8071 30.9202 4 21.0074 4ZM13.3451 26.8919C13.1675 26.4482 13.0343 25.9204 12.9944 25.0811L13.3451 26.8919Z" fill="#F2BF5E" stroke="#022026" stroke-width="2"/>
<path fill-rule="evenodd" clip-rule="evenodd" d="M20.1949 14.2859C20.4363 14.2855 20.7057 14.2859 21.0083 14.2859C23.4291 14.2859 23.716 14.2943 24.672 14.3365C25.556 14.3757 26.0358 14.5191 26.3554 14.6395C26.7785 14.799 27.0802 14.9897 27.3973 15.2977C27.7147 15.6057 27.9111 15.899 28.0758 16.3097C28.1999 16.6195 28.3478 17.0852 28.3881 17.9432C28.4315 18.8709 28.441 19.1496 28.441 21.4981C28.441 23.8466 28.4315 24.1253 28.3881 25.0529C28.3476 25.9109 28.1999 26.3766 28.0758 26.6864C27.9115 27.0971 27.7147 27.3895 27.3973 27.6974C27.08 28.0054 26.7787 28.196 26.3554 28.3555C26.0362 28.4765 25.556 28.6195 24.672 28.6588C23.7163 28.7009 23.4291 28.7101 21.0083 28.7101C18.5873 28.7101 18.3003 28.7009 17.3446 28.6588C16.4606 28.6192 15.9808 28.4758 15.661 28.3553C15.2379 28.1958 14.9356 28.0052 14.6183 27.6972C14.3009 27.3892 14.1045 27.0966 13.9398 26.6857C13.8157 26.3759 13.6678 25.9102 13.6276 25.0522C13.5841 24.1245 13.5755 23.8459 13.5755 21.4959C13.5755 19.1459 13.5841 18.8687 13.6276 17.941C13.668 17.083 13.8157 16.6173 13.9398 16.3071C14.1042 15.8965 14.3009 15.6031 14.6183 15.2951C14.9356 14.9871 15.2379 14.7965 15.661 14.6366C15.9806 14.5156 16.4606 14.3726 17.3446 14.3332C18.181 14.2965 18.5051 14.2855 20.1949 14.2837V14.2859ZM25.8481 15.747C25.2474 15.747 24.7601 16.2195 24.7601 16.8027C24.7601 17.3857 25.2474 17.8587 25.8481 17.8587C26.4487 17.8587 26.9361 17.3857 26.9361 16.8027C26.9361 16.2197 26.4487 15.747 25.8481 15.747ZM21.0083 16.9809C18.4369 16.9809 16.3521 19.0044 16.3521 21.5001C16.3521 23.9958 18.4369 26.0184 21.0083 26.0184C23.5797 26.0184 25.6637 23.9958 25.6637 21.5001C25.6637 19.0044 23.5797 16.9809 21.0083 16.9809Z" fill="#F2BF5E"/>
<path fill-rule="evenodd" clip-rule="evenodd" d="M21.0083 18.5667C22.6773 18.5667 24.0305 19.88 24.0305 21.5001C24.0305 23.12 22.6773 24.4334 21.0083 24.4334C19.339 24.4334 17.9861 23.12 17.9861 21.5001C17.9861 19.88 19.339 18.5667 21.0083 18.5667Z" fill="#F2BF5E"/>
</svg>
