<svg width="40" height="38" viewBox="0 0 40 38" fill="none" xmlns="http://www.w3.org/2000/svg">
<g clip-path="url(#clip0_105_13)">
<circle cx="20" cy="19" r="15.7574" fill="#022026"/>
<path d="M20.4775 16.9849V20.2804L20.4778 20.2799C20.4776 20.3054 20.4775 20.3301 20.4775 20.354V25.6285H18.6291C18.6298 25.4469 18.6307 25.2447 18.6316 25.0254C18.6356 24.0541 18.6403 22.748 18.6435 21.4088C18.6479 19.5469 18.6495 17.5898 18.6407 16.3936H20.4775V16.9849ZM28.3858 20.1864L28.3857 25.6282H26.5333V20.6175C26.5333 19.7672 26.3811 18.893 25.8983 18.2063C25.3734 17.4596 24.5602 17.0775 23.5811 17.0775C23.1837 17.0775 22.8274 17.1441 22.5106 17.2583C22.6951 17.0191 22.9142 16.7897 23.1959 16.6006C23.5741 16.3467 24.1191 16.1295 24.9501 16.1295C26.0044 16.1295 26.8288 16.4587 27.394 17.053C27.9628 17.6511 28.3858 18.6411 28.3858 20.1864ZM20.4783 0.727274C10.5655 0.727274 2.47827 8.53438 2.47827 18.2273C2.47827 27.9202 10.5655 35.7273 20.4783 35.7273C30.391 35.7273 38.4783 27.9202 38.4783 18.2273C38.4783 8.53438 30.391 0.727274 20.4783 0.727274ZM12.6394 25.6282V16.3933H14.492V25.6282H12.6394ZM13.5911 10.9773C14.0338 10.9773 14.3099 11.1145 14.4695 11.2642C14.6267 11.4115 14.7363 11.6305 14.7457 11.929C14.743 12.1955 14.6426 12.4086 14.4786 12.5611C14.3108 12.717 14.0201 12.8598 13.5658 12.8598H13.5411C12.7469 12.8598 12.4116 12.3926 12.4116 11.9179C12.4116 11.6396 12.515 11.4251 12.6818 11.2726C12.8526 11.1165 13.1458 10.9773 13.5911 10.9773Z" fill="#F2BF5E" stroke="black" stroke-width="2"/>
</g>
<defs>
<clipPath id="clip0_105_13">
<rect width="40" height="38" fill="white"/>
</clipPath>
</defs>
</svg>
