<svg width="120" height="120" viewBox="0 0 120 120" fill="none" xmlns="http://www.w3.org/2000/svg">
<path d="M56.25 15C54.2871 15 52.2803 15.6885 50.8594 17.1094C49.4385 18.5303 48.75 20.5371 48.75 22.5V26.25H26.25V33.75H30V93.75C30 99.917 35.083 105 41.25 105H86.25C92.417 105 97.5 99.917 97.5 93.75V33.75H101.25V26.25H78.75V22.5C78.75 20.5371 78.0615 18.5303 76.6406 17.1094C75.2197 15.6885 73.2129 15 71.25 15H56.25ZM56.25 22.5H71.25V26.25H56.25V22.5ZM37.5 33.75H90V93.75C90 95.8301 88.3301 97.5 86.25 97.5H41.25C39.1699 97.5 37.5 95.8301 37.5 93.75V33.75ZM45 45V86.25H52.5V45H45ZM60 45V86.25H67.5V45H60ZM75 45V86.25H82.5V45H75Z" fill="#022026"/>
</svg>
