<svg width="38" height="38" viewBox="0 0 38 38" fill="none" xmlns="http://www.w3.org/2000/svg">
<circle cx="19" cy="19.2727" r="15.7574" fill="#022026"/>
<path fill-rule="evenodd" clip-rule="evenodd" d="M2 19C2 9.88733 9.61118 2.5 19 2.5C28.3888 2.5 36 9.88733 36 19C36 28.1127 28.3888 35.5 19 35.5C9.61118 35.5 2 28.1127 2 19ZM18.4909 15.9114L18.5266 16.4824L17.932 16.4125C15.7678 16.1445 13.8771 15.2356 12.2718 13.7092L11.487 12.9519L11.2848 13.5111C10.8567 14.7578 11.1302 16.0746 12.0221 16.9601C12.4977 17.4494 12.3907 17.5193 11.5702 17.228C11.2848 17.1348 11.0351 17.065 11.0113 17.0999C10.9281 17.1814 11.2135 18.2418 11.4394 18.6612C11.7486 19.2438 12.3788 19.8148 13.0685 20.1527L13.6512 20.4207L12.9615 20.4323C12.2956 20.4323 12.2718 20.444 12.3432 20.6886C12.5809 21.446 13.5203 22.25 14.5668 22.5995L15.3041 22.8442L14.6619 23.2171C13.7106 23.753 12.5928 24.056 11.4751 24.0793C10.9399 24.0909 10.5 24.1376 10.5 24.1725C10.5 24.289 11.9507 24.9415 12.795 25.1979C15.3278 25.9552 18.3363 25.629 20.5956 24.3356C22.2009 23.4151 23.8062 21.5858 24.5553 19.8148C24.9596 18.871 25.364 17.1465 25.364 16.3192C25.364 15.7833 25.3996 15.7133 26.0655 15.0725C26.4579 14.6996 26.8265 14.2918 26.8979 14.1753C27.0168 13.9539 27.0049 13.9539 26.3985 14.152C25.3877 14.5015 25.245 14.4549 25.7445 13.9306C26.1131 13.5578 26.553 12.8819 26.553 12.6839C26.553 12.6489 26.3747 12.7072 26.1725 12.812C25.9585 12.9285 25.4829 13.1033 25.1261 13.2082L24.484 13.4063L23.9013 13.0218C23.5803 12.812 23.1284 12.579 22.8906 12.5091C22.2841 12.346 21.3566 12.3693 20.8097 12.5557C19.3232 13.08 18.3838 14.4316 18.4909 15.9114Z" fill="#F2BF5E" stroke="#022026" stroke-width="2"/>
</svg>
